PathFileType	4	(X/Y/Z)	/Users/itak/Documents/Research/Walk-IL/dataset/trc/00313_00010.trc
DataRate	CameraRate	NumFrames	NumMarkers	Units	OrigDataRate	OrigDataStartFrame	OrigNumFrames
100.000000	100.000000	4	53	mm	100.000000	323	517
Frame#	Time	RPSI			LPSI			L3			STRN			T10			C7			CLAV			RBAK			LBAK			LSHO			LUPA			LAEL			LAOL			LWTS			LWPS			LFRA			LIFD			LHPS			LHTS			RSHO			RUPA			RAEL			RAOL			RWTS			RWPS			RFRA			RIFD			RHTS			RHPS			RBHD			LFHD			RFHD			LBHD			LHIP			RHIP			RASI			LASI			LKNE			LTHI			LANK			LTIP			LTOE			LMT1			LMT5			LHEE			RKNE			RTHI			RANK			RTIP			RTOE			RMT1			RMT5			RHEE			
		X1	Y1	Z1	X2	Y2	Z2	X3	Y3	Z3	X4	Y4	Z4	X5	Y5	Z5	X6	Y6	Z6	X7	Y7	Z7	X8	Y8	Z8	X9	Y9	Z9	X10	Y10	Z10	X11	Y11	Z11	X12	Y12	Z12	X13	Y13	Z13	X14	Y14	Z14	X15	Y15	Z15	X16	Y16	Z16	X17	Y17	Z17	X18	Y18	Z18	X19	Y19	Z19	X20	Y20	Z20	X21	Y21	Z21	X22	Y22	Z22	X23	Y23	Z23	X24	Y24	Z24	X25	Y25	Z25	X26	Y26	Z26	X27	Y27	Z27	X28	Y28	Z28	X29	Y29	Z29	X30	Y30	Z30	X31	Y31	Z31	X32	Y32	Z32	X33	Y33	Z33	X34	Y34	Z34	X35	Y35	Z35	X36	Y36	Z36	X37	Y37	Z37	X38	Y38	Z38	X39	Y39	Z39	X40	Y40	Z40	X41	Y41	Z41	X42	Y42	Z42	X43	Y43	Z43	X44	Y44	Z44	X45	Y45	Z45	X46	Y46	Z46	X47	Y47	Z47	X48	Y48	Z48	X49	Y49	Z49	X50	Y50	Z50	X51	Y51	Z51	X52	Y52	Z52	X53	Y53	Z53	

324	3.23	303.1835632324219	963.8233032226562	-16.90478897094727	465.8074035644531	961.88671875	-82.78018188476562	406.5960693359375	1027.542846679688	-43.89817047119141	481.9813537597656	1211.781494140625	187.4505615234375	411.2658996582031	1140.306030273438	-65.06108856201172	436.9483947753906	1387.919921875	-36.46142959594727	467.5136413574219	1311.609741210938	124.1895141601562	353.6471252441406	1247.489868164062	-64.33091735839844	536.138916015625	1351.223022460938	-73.43660736083984	605.5565795898438	1360.271484375	3.400326013565063	673.8056640625	1242.550903320312	-29.2044506072998	707.5921020507812	1046.947509765625	-2.062811374664307	635.7063598632812	1013.184936523438	-39.14250183105469	724.6903076171875	901.649169921875	177.7129974365234	774.6162109375	871.4949951171875	134.8762969970703	737.1979370117188	963.1939086914062	46.19354248046875	767.7637329101562	753.8306274414062	278.6236267089844	791.0488891601562	802.432373046875	186.0166625976562	771.1727294921875	834.9325561523438	239.9951324462891	296.8806762695312	1368.870361328125	61.78837966918945	228.9725494384766	1317.121948242188	62.85752487182617	154.8666839599609	1068.482666015625	11.71668243408203	245.2252349853516	1048.177978515625	-7.966076374053955	143.5152740478516	823.530029296875	60.13212585449219	77.90579986572266	849.7258911132812	12.05215358734131	124.227294921875	1005.319641113281	20.43531608581543	105.110954284668	650.1294555664062	1.991794109344482	98.66796875	710.6807861328125	47.71149444580078	53.575927734375	739.1603393554688	-1.267562389373779	368.2695007324219	1549.97314453125	-2.855312585830688	510.637451171875	1587.8515625	151.6777038574219	420.0804443359375	1580.94677734375	165.139892578125	513.3700561523438	1551.528076171875	-21.28457260131836	579.4276123046875	911.1080322265625	-60.15540313720703	251.8525695800781	915.78369140625	119.0612182617188	366.5569763183594	919.7952880859375	196.8264312744141	591.7507934570312	907.6254272460938	82.58496856689453	549.2819213867188	450.7467346191406	-83.90414428710938	574.77685546875	590.1892700195312	-62.74781799316406	385.4885864257812	136.8211822509766	-380.2065734863281	475.7597351074219	291.677490234375	-242.5676422119141	368.9845886230469	31.39342880249023	-215.1417388916016	314.9609069824219	53.50483322143555	-253.6353302001953	416.6535034179688	48.42253494262695	-301.189453125	322.3506774902344	176.5497283935547	-386.8080139160156	403.2904052734375	474.2144470214844	248.9947509765625	311.8300476074219	722.9876708984375	214.2275390625	474.407470703125	38.96962738037109	222.3203277587891	443.1471252441406	354.9423522949219	268.5572814941406	597.2150268554688	43.8790283203125	383.0748596191406	612.2606201171875	36.74167633056641	314.3646850585938	496.0220947265625	31.1999454498291	326.4365234375	502.3813171386719	33.01597213745117	157.6126556396484	
325	3.24	307.6191711425781	965.9163818359375	-7.253444671630859	470.3418273925781	962.6580200195312	-72.64991760253906	411.1598815917969	1029.311889648438	-34.3394660949707	484.8089294433594	1214.495239257812	197.3360290527344	415.7498474121094	1142.051025390625	-55.76912689208984	440.4173278808594	1389.600952148438	-27.47207641601562	470.2754516601562	1314.072509765625	133.4576416015625	357.8160095214844	1248.859130859375	-55.30771255493164	539.921142578125	1353.395751953125	-63.83343887329102	608.8460083007812	1362.943481445312	13.43249034881592	677.5729370117188	1245.543334960938	-18.86730766296387	709.9974365234375	1049.196166992188	7.324346542358398	638.065673828125	1016.496032714844	-30.69999122619629	723.980224609375	900.6500854492188	185.2592468261719	773.8533325195312	870.614990234375	142.4354553222656	738.3634033203125	964.4066772460938	54.79380798339844	763.2344970703125	750.1528930664062	283.6301879882812	788.5732421875	800.217041015625	192.4162750244141	768.4788208007812	831.93017578125	246.7704620361328	299.9522399902344	1370.389404296875	70.08168792724609	232.2389526367188	1318.541137695312	70.986083984375	159.8428497314453	1069.34423828125	20.13644409179688	250.3743591308594	1049.654663085938	0.8560816049575806	150.0960998535156	824.4148559570312	69.8563232421875	84.37195587158203	849.8724975585938	21.59537124633789	129.5700531005859	1005.902465820312	29.0136890411377	114.2861022949219	650.6259155273438	11.15356159210205	106.8735504150391	710.9237670898438	57.08773422241211	61.48876953125	738.880859375	8.191843032836914	370.9918823242188	1551.544189453125	5.860028743743896	512.6024780273438	1589.665161132812	160.9905090332031	422.0337524414062	1582.530639648438	174.0983581542969	516.1304321289062	1553.494873046875	-11.9831075668335	583.6202392578125	911.6154174804688	-49.20950317382812	255.3655700683594	918.6301879882812	128.6155548095703	369.7417602539062	922.6172485351562	206.9209747314453	595.0013427734375	909.254638671875	93.37798309326172	559.3789672851562	450.009033203125	-67.39529418945312	582.43408203125	589.8463745117188	-48.00870513916016	393.781005859375	145.3085174560547	-370.42822265625	485.0224304199219	294.7017822265625	-228.9949188232422	369.7382202148438	30.68299102783203	-214.1936798095703	317.7117004394531	57.4608154296875	-250.8418273925781	420.3219299316406	50.56031036376953	-297.0999450683594	332.1758422851562	187.48046875	-375.2667236328125	404.8848571777344	474.6851196289062	255.5641174316406	314.7031860351562	724.8846435546875	223.6986389160156	474.3339538574219	39.0111198425293	222.5373992919922	444.359619140625	354.8060913085938	273.5752563476562	597.3378295898438	42.790771484375	383.4995727539062	612.2222900390625	36.66140747070312	314.5722961425781	496.028564453125	31.0494327545166	326.6075439453125	502.1304931640625	33.10203552246094	157.7591400146484	
326	3.25	311.765380859375	967.983642578125	2.330721378326416	474.4718017578125	963.38525390625	-62.82497787475586	415.3738708496094	1031.0859375	-24.93891334533691	487.6592712402344	1217.077758789062	207.0551300048828	419.9585876464844	1143.728393554688	-46.51078414916992	443.7417907714844	1391.213623046875	-18.55842590332031	473.0268249511719	1316.472778320312	142.6365356445312	361.8011474609375	1250.12841796875	-46.28170394897461	543.5201416015625	1355.478149414062	-54.39113616943359	612.0147705078125	1365.54150390625	23.24657440185547	681.2528686523438	1248.488525390625	-8.733187675476074	712.5510864257812	1051.430908203125	16.62594223022461	640.6912841796875	1019.764221191406	-22.45497703552246	723.1864013671875	899.4442749023438	192.4631805419922	773.1307983398438	869.644287109375	149.7308502197266	739.643310546875	965.600341796875	63.25329208374023	758.446533203125	746.155029296875	287.9458923339844	786.0519409179688	797.8375244140625	198.3882293701172	765.5218505859375	828.6217651367188	253.0949401855469	302.9421997070312	1371.837524414062	78.40774536132812	235.4321746826172	1319.930541992188	79.17117309570312	164.601806640625	1070.178100585938	28.63739776611328	255.3165893554688	1051.120727539062	9.63300609588623	156.7295684814453	825.4234619140625	80.06818389892578	90.83638000488281	849.868896484375	31.58943939208984	134.7672576904297	1006.411682128906	37.75461959838867	123.7927703857422	651.0134887695312	21.5902271270752	115.2599258422852	711.2269897460938	67.46245574951172	69.59548950195312	738.3782348632812	18.51944732666016	373.6863708496094	1553.098266601562	14.52206420898438	514.5579833984375	1591.39306640625	170.253173828125	423.97998046875	1584.053344726562	183.0051727294922	518.8626708984375	1555.412475585938	-2.731925010681152	587.4578247070312	912.1490478515625	-38.6978645324707	258.8306884765625	921.2979125976562	138.1394348144531	372.9879455566406	925.192626953125	216.7767944335938	598.517333984375	911.2445068359375	104.2000961303711	569.6024780273438	449.3117980957031	-50.30079650878906	590.1354370117188	589.5620727539062	-33.1055908203125	403.1578063964844	153.84228515625	-359.4653625488281	494.868896484375	297.4296875	-214.3359069824219	370.8135375976562	29.83823394775391	-212.5863647460938	321.0903930664062	62.03568267822266	-247.4244537353516	424.6138610839844	53.1860466003418	-292.1846313476562	343.100341796875	198.253662109375	-362.6839904785156	406.2055053710938	474.8645324707031	261.2800598144531	317.3390502929688	726.350830078125	232.5873107910156	474.276611328125	39.00320816040039	222.6685180664062	445.3055114746094	354.5140380859375	277.9552307128906	597.4297485351562	41.96213531494141	383.7677612304688	612.1853637695312	36.63080596923828	314.7000732421875	496.0026245117188	30.95180511474609	326.7277221679688	501.9249267578125	33.13147354125977	157.8260650634766	
327	3.26	315.6347961425781	970.0106201171875	11.82028484344482	478.2342834472656	964.0518188476562	-53.29867172241211	419.2583923339844	1032.82666015625	-15.66855525970459	490.5558776855469	1219.454345703125	216.5794372558594	423.883056640625	1145.306274414062	-37.29630279541016	446.9215698242188	1392.734375	-9.716657638549805	475.7958984375	1318.750366210938	151.7311706542969	365.5759887695312	1251.2822265625	-37.272705078125	546.9335327148438	1357.431640625	-45.11754989624023	615.08154296875	1368.00537109375	32.81939697265625	684.8177490234375	1251.29150390625	1.15571665763855	715.2520751953125	1053.569580078125	25.83943557739258	643.5772705078125	1022.884399414062	-14.39532279968262	722.3185424804688	898.0191040039062	199.3231658935547	772.494384765625	868.5720825195312	156.7918701171875	741.0488891601562	966.7139892578125	71.59004974365234	753.4678344726562	741.911376953125	291.6132202148438	783.5619506835938	795.3176879882812	203.9824981689453	762.3441772460938	825.05029296875	258.9803161621094	305.8579711914062	1373.176513671875	86.78621673583984	238.5534820556641	1321.2314453125	87.43514251708984	169.1357421875	1070.918579101562	37.24210357666016	260.0428466796875	1052.503051757812	18.37560081481934	163.3858337402344	826.4794921875	90.71393585205078	97.27536773681641	849.6751098632812	42.00246810913086	139.8141632080078	1006.790771484375	46.68313217163086	133.5285797119141	651.2537841796875	33.28841781616211	123.7711486816406	711.5601196289062	78.81343078613281	77.83490753173828	737.6386108398438	29.67950820922852	376.3540344238281	1554.612426757812	23.13166427612305	516.5164794921875	1593.025634765625	179.4560546875	425.9326782226562	1585.50244140625	191.8591766357422	521.5690307617188	1557.257446289062	6.460445880889893	590.9661254882812	912.6644287109375	-28.60449600219727	262.2457580566406	923.7564697265625	147.5973052978516	376.2918090820312	927.4747924804688	226.3875122070312	602.2671508789062	913.4500122070312	114.9706268310547	579.8270874023438	448.6961059570312	-32.62184524536133	597.8046875	589.3616333007812	-18.04103660583496	413.5207824707031	162.2174530029297	-347.30810546875	505.2110290527344	299.8605041503906	-198.6226501464844	372.3410949707031	28.95903587341309	-210.0803680419922	325.2489013671875	67.18134307861328	-243.1558532714844	429.5820617675781	56.28325271606445	-286.2626647949219	355.0042114257812	208.6945037841797	-349.110107421875	407.3392639160156	474.8037719726562	266.2215881347656	319.7594909667969	727.35498046875	240.8066864013672	474.2557373046875	38.96723175048828	222.7351837158203	446.0449523925781	354.105224609375	281.7518310546875	597.5237426757812	41.33352661132812	383.9208679199219	612.1668701171875	36.60231018066406	314.7701721191406	495.9668884277344	30.88679122924805	326.8075256347656	501.7781066894531	33.13039398193359	157.8346099853516	
